{"title":"Before Midnight 2013 HDRiP XViD UNiQUE","uid":8682371,"size":1535524897,"categoryP":"video","categoryS":"movies","magnet":"?xt=urn:btih:6687d9df3332c891f7cb6266d8216b4399620ca4&amp;dn=Before+Midnight+2013+HDRiP+XViD+UNiQUE&amp;tr=udp%3A%2F%2Ftracker.openbittorrent.com%3A80&amp;tr=udp%3A%2F%2Fopen.demonii.com%3A1337&amp;tr=udp%3A%2F%2Ftracker.coppersurfer.tk%3A6969&amp;tr=udp%3A%2F%2Fexodus.desync.com%3A6969","seeders":2,"leechers":0,"uploader":"Vitamin_X","files":-1,"time":1373730796,"description":"_______ Visit us at our Semi Public Bittorrent Community ________\n  &lt;a href=&quot;\nhttp://p2pdl.com&quot; rel=&quot;nofollow&quot; target=&quot;_NEW&quot;&gt;\nhttp://p2pdl.com&lt;/a&gt;  _____________________________ &lt;a href=&quot; http://p2pdl.com&quot; rel=&quot;nofollow&quot; target=&quot;_NEW&quot;&gt; http://p2pdl.com&lt;/a&gt;\n\n\nBefore Midnight 2013 HDRiP XViD UNiQUE\n\n\nWe meet Jesse and Celine nine years on in Greece. Almost two decades have passed since their\nfirst meeting on that train bound for Vienna.\n\n &lt;a href=&quot;\nhttp://www.imdb.com/title/tt2209418&quot; rel=&quot;nofollow&quot; target=&quot;_NEW&quot;&gt;\nhttp://www.imdb.com/title/tt2209418&lt;/a&gt;\n\nGeneral\nFormat : AVI\nFile size : 1.42 GiB\nDuration : 1h 48mn\nOverall bit rate : 1 867 Kbps\n\nVideo\nFormat : MPEG-4 Visual\nBit rate : 1 663 Kbps\nWidth : 720 pixels\nHeight : 304 pixels\nBit depth : 8 bits\nStream size : 1.26 GiB (89%)\nWriting library : XviD 64\n\nAudio\nFormat : AC-3\nBit rate mode : Constant\nBit rate : 192 Kbps\nChannel(s) : 2 channels\nChannel positions : Front: L R\nSampling rate : 44.1 KHz\nBit depth : 16 bits\nStream size : 149 MiB (10%)\n &lt;a href=&quot;\nhttp://ultraimg.com/images/WrVhI.png&quot; rel=&quot;nofollow&quot; target=&quot;_NEW&quot;&gt;\nhttp://ultraimg.com/images/WrVhI.png&lt;/a&gt; &lt;a href=&quot;\nhttp://ultraimg.com/images/hO8n.png&quot; rel=&quot;nofollow&quot; target=&quot;_NEW&quot;&gt;\nhttp://ultraimg.com/images/hO8n.png&lt;/a&gt; &lt;a href=&quot;\nhttp://ultraimg.com/images/M3dkJ.png&quot; rel=&quot;nofollow&quot; target=&quot;_NEW&quot;&gt;\nhttp://ultraimg.com/images/M3dkJ.png&lt;/a&gt; &lt;a href=&quot;\nhttp://ultraimg.com/images/5Iqi7.png&quot; rel=&quot;nofollow&quot; target=&quot;_NEW&quot;&gt;\nhttp://ultraimg.com/images/5Iqi7.png&lt;/a&gt; &lt;a href=&quot;\nhttp://ultraimg.com/images/FbDGo.png&quot; rel=&quot;nofollow&quot; target=&quot;_NEW&quot;&gt;\nhttp://ultraimg.com/images/FbDGo.png&lt;/a&gt; &lt;a href=&quot;\nhttp://ultraimg.com/images/ecR8M.png&quot; rel=&quot;nofollow&quot; target=&quot;_NEW&quot;&gt;\nhttp://ultraimg.com/images/ecR8M.png&lt;/a&gt; &lt;a href=&quot;\nhttp://ultraimg.com/images/tJC5P.png&quot; rel=&quot;nofollow&quot; target=&quot;_NEW&quot;&gt;\nhttp://ultraimg.com/images/tJC5P.png&lt;/a&gt; &lt;a href=&quot;\nhttp://ultraimg.com/images/3aTv.png&quot; rel=&quot;nofollow&quot; target=&quot;_NEW&quot;&gt;\nhttp://ultraimg.com/images/3aTv.png&lt;/a&gt; &lt;a href=&quot;\nhttp://ultraimg.com/images/Atofk.png&quot; rel=&quot;nofollow&quot; target=&quot;_NEW&quot;&gt;\nhttp://ultraimg.com/images/Atofk.png&lt;/a&gt; &lt;a href=&quot;\nhttp://ultraimg.com/images/mNcps.png&quot; rel=&quot;nofollow&quot; target=&quot;_NEW&quot;&gt;\nhttp://ultraimg.com/images/mNcps.png&lt;/a&gt;\n","torrent":{"xt":"urn:btih:6687d9df3332c891f7cb6266d8216b4399620ca4","amp;dn":"Before+Midnight+2013+HDRiP+XViD+UNiQUE","amp;tr":["udp%3A%2F%2Ftracker.openbittorrent.com%3A80","udp%3A%2F%2Fopen.demonii.com%3A1337","udp%3A%2F%2Ftracker.coppersurfer.tk%3A6969","udp%3A%2F%2Fexodus.desync.com%3A6969"],"infoHash":"6687d9df3332c891f7cb6266d8216b4399620ca4","infoHashBuffer":{"type":"Buffer","data":[102,135,217,223,51,50,200,145,247,203,98,102,216,33,107,67,153,98,12,164]},"announce":[],"urlList":[]}}